<svg version="1.1" id="Layer_1" xmlns="http://www.w3.org/2000/svg" xmlns:xlink="http://www.w3.org/1999/xlink" x="0px" y="0px"
	 width="100%" viewBox="0 0 500 500" enable-background="new 0 0 500 500" xml:space="preserve">
<path fill="#FFFFFF" opacity="1.000000" stroke="none" 
	d="
M501.000000,480.531342 
	C493.000946,478.575439 484.940399,476.335388 477.013275,473.694916 
	C439.766602,461.288177 402.578369,448.705475 365.300537,436.393616 
	C361.460449,435.125336 360.341858,433.476013 360.346924,429.451141 
	C360.476471,326.660950 360.447479,223.870575 360.664093,120.399078 
	C360.747375,118.755722 360.612701,117.793526 360.478027,116.831329 
	C360.448059,116.008736 360.418152,115.186142 360.209991,113.964417 
	C360.031738,113.565285 359.982727,113.550911 360.327820,113.240936 
	C360.758850,110.939842 360.916962,108.948822 360.919830,106.957573 
	C360.961090,78.310066 360.981445,49.662537 361.397583,21.018665 
	C366.651520,22.536858 371.542725,23.967571 376.373199,25.580170 
	C399.504791,33.302380 422.606201,41.115002 445.745209,48.814770 
	C464.143372,54.936962 482.580292,60.942612 501.000000,67.000000 
	C501.000000,204.687561 501.000000,342.375122 501.000000,480.531342 
z"/>
<path fill="#f4f4f5" opacity="1.000000" stroke="none" 
	d="
M0.999998,252.468658 
	C8.070776,249.920929 15.188506,247.987747 22.201925,245.730453 
	C34.345142,241.822128 46.423710,237.712921 58.842041,234.173904 
	C59.103882,254.284958 59.053074,273.910065 59.023796,293.516174 
	C59.045322,293.497162 59.071716,293.446167 59.071720,293.446167 
	C39.943771,299.861206 20.815819,306.276215 1.343933,312.845612 
	C1.000000,292.979095 1.000000,272.958221 0.999998,252.468658 
z"/>
<path fill="#Ffffff" opacity="1.000000" stroke="none" 
	d="
M190.095001,134.565079 
	C203.543396,138.909973 216.994080,143.247849 230.438797,147.604065 
	C234.353027,148.872345 238.250275,150.193069 242.702393,151.894379 
	C243.966568,152.484848 244.683670,152.670670 245.400757,152.856491 
	C259.893433,157.627335 274.394958,162.371887 288.855469,167.238327 
	C289.671387,167.512924 290.434326,168.703629 290.711517,169.622009 
	C291.034424,170.691650 290.799042,171.931015 290.799042,173.096725 
	C290.799896,250.370728 290.800018,327.644714 290.800201,404.918732 
	C290.800201,406.574402 290.800201,408.230072 290.800201,410.644318 
	C283.826508,408.406769 277.262848,406.365509 270.741516,404.197052 
	C245.241806,395.718018 219.773605,387.143494 194.242172,378.761414 
	C190.892242,377.661591 189.790955,376.331207 189.841217,372.523926 
	C190.045197,357.073822 189.517532,341.615967 189.519104,326.160950 
	C189.522720,290.532440 189.677658,254.903915 189.841400,218.339539 
	C189.972748,189.790833 190.033875,162.177948 190.095001,134.565079 
z"/>
<path fill="#F4f4f5" opacity="1.000000" stroke="none" 
	d="
M245.617493,152.607941 
	C244.683670,152.670670 243.966568,152.484848 243.041138,151.974228 
	C242.887619,124.654060 242.943237,97.658699 242.996368,70.663330 
	C243.003250,67.165443 242.997299,63.667522 242.997299,59.470360 
	C281.317108,46.700848 319.755157,33.891941 358.934753,21.244438 
	C359.810028,22.214556 360.060883,23.023319 360.060577,23.831985 
	C360.049072,53.738297 360.014313,83.644608 359.982727,113.550911 
	C359.982727,113.550911 360.031738,113.565285 360.039795,113.589523 
	C342.332275,119.628380 324.617859,125.646584 306.900696,131.656662 
	C286.546509,138.561325 266.189850,145.458786 245.617493,152.607941 
z"/>
<path fill="#FFFFFF" opacity="1.000000" stroke="none" 
	d="
M59.223160,293.935303 
	C59.071716,293.446167 59.045322,293.497162 59.369061,293.208923 
	C59.776924,274.144348 59.869942,255.368027 59.919456,236.591583 
	C59.921986,235.632217 59.550716,234.671890 59.353485,233.712006 
	C59.353481,233.712006 59.517033,233.459656 60.050995,233.554993 
	C61.128216,233.673874 61.671474,233.697403 62.214737,233.720932 
	C74.584412,237.850510 86.954094,241.980072 99.915756,246.435913 
	C101.743927,247.146942 102.980133,247.531693 104.216339,247.916428 
	C116.514198,251.889832 128.812042,255.863251 141.176788,259.858276 
	C141.176788,293.268829 141.176788,326.340515 141.176788,359.856537 
	C139.928223,359.666260 138.829147,359.654358 137.835571,359.324585 
	C112.973679,351.073364 88.144165,342.723511 63.243778,334.590546 
	C60.056675,333.549591 59.323196,331.967804 59.365337,328.868652 
	C59.521435,317.389313 59.394932,305.906189 59.223160,293.935303 
z"/>
<path fill="#F4F4F5" opacity="1.000000" stroke="none" 
	d="
M104.325653,247.583099 
	C102.980133,247.531693 101.743927,247.146942 100.299316,246.510483 
	C100.175156,220.606812 100.357933,194.954422 100.243820,169.303360 
	C100.225426,165.168518 101.305832,163.306671 105.424652,161.982758 
	C132.792648,153.185867 160.055115,144.060715 187.778564,135.000656 
	C188.205215,134.958984 188.295593,134.945786 188.517700,135.367676 
	C188.831757,137.769241 189.001221,139.748825 189.003937,141.728622 
	C189.038910,167.240417 189.050095,192.752274 189.067307,218.264099 
	C168.985123,225.075775 148.894928,231.863937 128.824646,238.710526 
	C120.672432,241.491470 112.563553,244.399521 104.325653,247.583099 
z"/>
<path fill="#FEFEFE" opacity="1.000000" stroke="none" 
	d="
M188.752808,134.646759 
	C188.902405,134.728287 188.570236,134.744156 188.432922,134.844971 
	C188.295593,134.945786 188.205215,134.958984 188.176056,134.993774 
	C188.201584,134.778137 188.353683,134.623703 188.752808,134.646759 
z"/>
</svg>